<svg xmlns="http://www.w3.org/2000/svg" viewBox="0 0 2000 2000" fill="none">
    <rect x="1000" y="28.2843" width="649.16" height="649.16" transform="rotate(45 1000 28.2843)" fill="#33DD88"/>
    <rect x="1000" y="28.2843" width="649.16" height="649.16" transform="rotate(45 1000 28.2843)" fill="url(#paint0_radial_2_136479)" fill-opacity="0.2"/>
    <rect x="1000" y="28.2843" width="649.16" height="649.16" transform="rotate(45 1000 28.2843)" stroke="#256B44" stroke-width="40"/>
    <rect x="487.31" y="540.975" width="649.16" height="649.16" transform="rotate(45 487.31 540.975)" fill="#33DD88"/>
    <rect x="487.31" y="540.975" width="649.16" height="649.16" transform="rotate(45 487.31 540.975)" fill="url(#paint1_radial_2_136479)" fill-opacity="0.2"/>
    <rect x="487.31" y="540.975" width="649.16" height="649.16" transform="rotate(45 487.31 540.975)" stroke="#256B44" stroke-width="40"/>
    <rect x="1512.69" y="540.975" width="649.16" height="649.16" transform="rotate(45 1512.69 540.975)" fill="#33DD88"/>
    <rect x="1512.69" y="540.975" width="649.16" height="649.16" transform="rotate(45 1512.69 540.975)" fill="url(#paint2_radial_2_136479)" fill-opacity="0.2"/>
    <rect x="1512.69" y="540.975" width="649.16" height="649.16" transform="rotate(45 1512.69 540.975)" stroke="#256B44" stroke-width="40"/>
    <rect x="1000" y="1053.67" width="649.16" height="649.16" transform="rotate(45 1000 1053.67)" fill="#33DD88"/>
    <rect x="1000" y="1053.67" width="649.16" height="649.16" transform="rotate(45 1000 1053.67)" fill="url(#paint3_radial_2_136479)" fill-opacity="0.2"/>
    <rect x="1000" y="1053.67" width="649.16" height="649.16" transform="rotate(45 1000 1053.67)" stroke="#256B44" stroke-width="40"/>
    <defs>
        <radialGradient id="paint0_radial_2_136479" cx="0" cy="0" r="1" gradientUnits="userSpaceOnUse" gradientTransform="translate(1344.58 344.58) rotate(90) scale(344.58)">
            <stop stop-color="#0A1810" stop-opacity="0.02"/>
            <stop offset="1" stop-color="#07100B" stop-opacity="0.93"/>
        </radialGradient>
        <radialGradient id="paint1_radial_2_136479" cx="0" cy="0" r="1" gradientUnits="userSpaceOnUse" gradientTransform="translate(831.89 857.27) rotate(90) scale(344.58)">
            <stop stop-color="#0A1810" stop-opacity="0.02"/>
            <stop offset="1" stop-color="#07100B" stop-opacity="0.93"/>
        </radialGradient>
        <radialGradient id="paint2_radial_2_136479" cx="0" cy="0" r="1" gradientUnits="userSpaceOnUse" gradientTransform="translate(1857.27 857.27) rotate(90) scale(344.58)">
            <stop stop-color="#0A1810" stop-opacity="0.02"/>
            <stop offset="1" stop-color="#07100B" stop-opacity="0.93"/>
        </radialGradient>
        <radialGradient id="paint3_radial_2_136479" cx="0" cy="0" r="1" gradientUnits="userSpaceOnUse" gradientTransform="translate(1344.58 1369.96) rotate(90) scale(344.58)">
            <stop stop-color="#0A1810" stop-opacity="0.02"/>
            <stop offset="1" stop-color="#07100B" stop-opacity="0.93"/>
        </radialGradient>
    </defs>
</svg>